<svg viewBox="0 0 85.129 65.349" xmlns="http://www.w3.org/2000/svg" xmlns:xlink="http://www.w3.org/1999/xlink"><linearGradient id="a" gradientUnits="userSpaceOnUse" x1="442.091074" x2="448.52503816" y1="445.10308364" y2="445.10308364"><stop offset="0" stop-color="#fff" stop-opacity="0"/><stop offset=".5" stop-color="#fff"/><stop offset="1" stop-color="#999"/></linearGradient><filter id="b" color-interpolation-filters="sRGB"><feGaussianBlur stdDeviation="2.1991045"/></filter><filter id="c" color-interpolation-filters="sRGB"><feGaussianBlur stdDeviation=".85320467"/></filter><g transform="translate(-409.148 -400.064)"><g fill-rule="evenodd"><path d="m470.3 411.38c-2.178.0183-4.2208.34419-5.7404 1.2216l-33.952 19.919c-.33999.1963-.50998.43419-.5148.68642l-.00006 7.4336c-.004.33019.27419.6847.82451 1.0024l12.843 7.4153c.97294.56173 2.1458.63337 2.9278.18186l33.959-19.919c1.5539-.89713 2.3095-2.1042 2.3088-3.3935l.0002-7.4804c-.0262-1.6855-1.34-3.5059-3.8491-4.9545-2.5764-1.4875-5.8221-2.138-8.8067-2.1128z" fill="#808080"/><path d="m442.09 440.66v7.43c.37488.21644 1.663.96009 1.663.96009.97294.56173 2.1458.63337 2.9278.18186 0 0 1.4394-.83019 1.8432-1.0633v-7.43c-.40378.23312-1.8432 1.0633-1.8432 1.0633-.78203.45151-1.9548.37987-2.9278-.18186z" fill="url(#a)" opacity=".3"/><path d="m430.91 434.21 12.843 7.4148c.97294.56173 2.1478.63692 2.9279.18201l33.968-19.809c3.593-2.0954 2.9162-5.8252-1.5402-8.3981s-10.946-2.9701-14.548-.89037l-33.961 19.808c-.78644.45406-.6621 1.1312.31084 1.693" fill="#808080"/></g><path d="m1024.8 275.73c-1.39 24.612-14.32 42.96-31.243 56.476l-655.18 383.07c-28.689 16.447-44.443 6.9636-63.971-2.0231l-233.1-135.35c-32.065-15.81-27.879-26.86-14.944-36.77" fill="none" filter="url(#b)" stroke="#fff" stroke-width="4" transform="matrix(.052428 0 0 .052428 429.22 404.15)"/><path d="m470.17 410.73c-2.47.009-4.9487.69421-6.9925 2.0959-4.6206 2.6877-28.572 16.714-33.165 19.447-.64328.56648-.41272 1.5036-.44139 2.2548v1.6769c-3.1795 1.8491-6.3825 3.6432-9.5369 5.5378-.37495.59221-.0853 1.3312-.17221 1.9854.0338 1.4129-.10376 2.8447.0807 4.2457.53266.58038 1.3336.79271 1.9651 1.2459 3.2089 1.836 6.3913 3.7244 9.6151 5.5273.69735.0458 1.1683-.56953 1.7724-.81191 2.9711-1.7159 5.9422-3.4319 8.9132-5.1478 1.1448.69131 2.4181 1.533 3.8236 1.2781 1.2448-.25423 2.2116-1.1497 3.331-1.6935 4.369-2.5479 28.084-16.411 32.412-19.025 1.2167-.88755 1.8464-2.3766 1.841-3.9263-.0383-2.5507-.0317-5.0593-.0732-7.6544-.43565-2.0836-2.14-3.5955-3.8981-4.6373-2.8404-1.6954-6.1844-2.4312-9.4749-2.3984z" fill="none" stroke="#000" stroke-linecap="round" stroke-linejoin="round" stroke-width="1.3471"/><g transform="matrix(.052428 0 0 .052428 429.22 404.15)"><g fill-rule="evenodd"><path d="m-168.77 830.91 214.8 124.01 214.8-124.01-214.8-124.02z" fill="#808080"/><path d="m-165.7 829.13 217.87-125.79v-99.213l-217.87 125.79z" fill="#4d4d4d"/><path d="m30.686 928.35 228.14-132.87v-17.717l-228.14 132.87v17.717z" fill="#b3b3b3"/><path d="m-153.43 822.05v-17.717l184.12 106.3v17.717z" fill="#ececec"/><path d="m30.686 910.63-184.12-106.3 230.14-132.87 184.12 106.3-230.14 132.87z" fill="#ccc"/><path d="m-103.86 802.29 23.014 13.287 203.59-117.54-23.014-13.287zm38.357 22.146 23.014 13.287 203.59-117.54-23.014-13.287zm38.357 22.146 23.014 13.287 203.59-117.54-23.014-13.287zm38.357 22.146 23.014 13.287 203.59-117.54-23.014-13.287z" fill="#808080"/><path d="m46.031 600.59-214.81 124 214.81 124.03 214.81-124.03zm-15.343 79.72 30.687 17.72-61.375 35.44-30.688-17.72zm61.374 35.44 30.688 17.72-61.375 35.44-30.687-17.72z" fill="#b3b3b3"/><path d="m46.029 954.92v-106.3l214.8-124.02v106.3z" fill="#4d4d4d"/><path d="m-27.617 717.52-3.0686-1.7716 61.372-35.433v3.5433l-58.303 33.661z" fill="#333"/><path d="m30.686 680.31v3.5433l27.617 15.945 3.0686-1.7717-30.686-17.717z" fill="#e6e6e6"/><path d="m-168.78 724.59v106.31l214.81 124v-106.28zm3.0625 5.3125 208.69 120.5v99.188l-208.69-120.47v-99.219z" fill="#e6e6e6"/><path d="m33.755 752.95-3.0686-1.7716 61.372-35.433v3.5433l-58.303 33.661z" fill="#333"/><path d="m92.058 715.75v3.5433l27.617 15.945 3.0686-1.7717-30.686-17.717z" fill="#e6e6e6"/><path d="m33.755 752.95 58.303-33.66 27.622 15.95-58.308 33.66z" opacity=".6"/><path d="m-27.617 717.52 58.303-33.66 27.617 15.94-58.303 33.66z" opacity=".6"/></g><path d="m47.104 848.01 211.29-122" fill="none" filter="url(#c)" opacity=".24" stroke="#fff" stroke-width="4"/></g><path d="m445.47 427.56c-.47841.27621-.48947.74039-.0849 1.1445l-2.2906 1.3225c-.0589.0339-.0968.0788-.11001.13003l-.91345 3.5934-.73609.42498c-.71567-.25803-1.5575-.26063-2.052.0249-.60292.3481-.46159.99472.31547 1.4434.77705.44863 1.897.53022 2.5.18213.47731-.27558.48705-.7392.0853-1.1426l.92603-.53465.005.001.00059-.005 2.056-1.187.002.003 5.555-.47168c.0893-.007.1676-.0287.22702-.0625l2.0937-1.2088.57604.33258.28803.16629.22348-.12902 1.7599-1.0161.22348-.12903-.28802-.16629-2.1206-1.2243-.28802-.16629-.22348.12902-1.7599 1.0161-.22348.12903.28803.16629.68045.39286-2.0029 1.1564-3.6756.31163 7.8888-4.5546 1.1089.64022.39784.22969.0702-.26915.5233-2.0606.0716-.26997-.46799.0395-3.5724.3019-.46619.0405.39783.22969 1.0729.61943-10.118 5.8416.63605-2.502 2.1873-1.2628c.71466.25637 1.5536.25874 2.047-.0261.60292-.3481.46339-.99368-.31366-1.4423-.77706-.44863-1.897-.53023-2.5-.18213" fill="#fff" opacity=".76549"/></g></svg>